# xmcd
#
# Track frame offsets: 
#        150
#        20789
#        36061
#        54103
#        72232
#        92603
#        113265
#        132886
#        157598
#        176111
#        193999
#        210797
#        228006
#        243305
#
# Disc length: 3604 seconds
#
# Revision: 0
# Processed by: cddbd v1.5.2PL0 Copyright (c) Steve Scherf et al.
# Submitted via: ExactAudioCopy v1.1
#
DISCID=a40e120e
DTITLE=PROGRES - Dnes si ja zaspievam
DYEAR=2012
DGENRE=Folklore
TTITLE0=Dnes si ja zaspievam
TTITLE1=Tebe k sviatku
TTITLE2=Cesta životom
TTITLE3=Raz, dva, tri
TTITLE4=Od Jadranu po Tatry
TTITLE5=Nad potokom
TTITLE6=Nebudem ja
TTITLE7=Zmes poliek
TTITLE8=Keby som ja poznal
TTITLE9=Právo na lásku
TTITLE10=Idem po dedine
TTITLE11=To naše Valašsko
TTITLE12=Tebe Jarmila
TTITLE13=Prešporská kasáreň
EXTD=
EXTT0=
EXTT1=
EXTT2=
EXTT3=
EXTT4=
EXTT5=
EXTT6=
EXTT7=
EXTT8=
EXTT9=
EXTT10=
EXTT11=
EXTT12=
EXTT13=
PLAYORDER=
